Coordinates
version=1
nRows=34
nColumns=38
inDegrees=no

Units are S.I. units (second, meters, Newtons, ...)
If the header above contains a line with 'inDegrees', this indicates whether rotational values are in degrees (yes) or radians (no).

endheader
time	pelvis_tilt	pelvis_list	pelvis_rotation	pelvis_tx	pelvis_ty	pelvis_tz	hip_flexion_r	hip_adduction_r	hip_rotation_r	knee_angle_r	ankle_angle_r	subtalar_angle_r	mtp_angle_r	hip_flexion_l	hip_adduction_l	hip_rotation_l	knee_angle_l	ankle_angle_l	subtalar_angle_l	mtp_angle_l	lumbar_extension	lumbar_bending	lumbar_rotation	arm_flex_r	arm_add_r	arm_rot_r	elbow_flex_r	pro_sup_r	wrist_flex_r	wrist_dev_r	arm_flex_l	arm_add_l	arm_rot_l	elbow_flex_l	pro_sup_l	wrist_flex_l	wrist_dev_l
1.8	2.93911	1.45592	-1.30066	0.565668	1.41278	0.945204	0.00755031	0.0471005	-0.205498	0.240699	0.127088	0	0	0.27669	-0.203063	-0.125262	1.28108	0.0632351	0	0	-0.245591	0.0653893	-0.0935549	-0.158116	-0.244094	0.228303	0.714324	0.282517	0	0	-0.0682407	-0.340951	0.399008	0.727514	1.32604	0	0
1.81	2.98677	1.45646	-1.35373	0.566251	1.42212	0.946533	-0.0117533	0.0439012	-0.199755	0.22558	0.127714	0	0	0.29171	-0.199142	-0.136195	1.26048	0.0789312	0	0	-0.247728	0.057838	-0.0873913	-0.163014	-0.244758	0.227386	0.719219	0.282999	0	0	-0.0730404	-0.339937	0.399949	0.729093	1.32426	0	0
1.82	3.03154	1.45631	-1.40358	0.566835	1.43146	0.94772	-0.0315034	0.041016	-0.194037	0.210198	0.12849	0	0	0.304901	-0.196228	-0.148704	1.23602	0.0930539	0	0	-0.250097	0.0506123	-0.0816857	-0.167365	-0.245137	0.226143	0.723745	0.283104	0	0	-0.0778004	-0.339377	0.401507	0.731295	1.32114	0	0
1.83	3.07107	1.45547	-1.44834	0.56737	1.44073	0.948763	-0.05146	0.0385174	-0.186878	0.194848	0.129234	0	0	0.316173	-0.194232	-0.162722	1.20774	0.105259	0	0	-0.253124	0.044071	-0.0758968	-0.170992	-0.245095	0.22304	0.727995	0.284396	0	0	-0.0824404	-0.33858	0.402416	0.733722	1.3166	0	0
1.84	3.10682	1.454	-1.4895	0.56781	1.44992	0.949649	-0.0714291	0.0360363	-0.178951	0.180513	0.130224	0	0	0.325496	-0.192463	-0.177524	1.17583	0.116127	0	0	-0.256814	0.0380126	-0.0703038	-0.173619	-0.245246	0.220257	0.732331	0.286234	0	0	-0.0872938	-0.337152	0.401734	0.735964	1.31157	0	0
1.85	3.13621	1.45201	-1.52331	0.568171	1.45919	0.950355	-0.0920391	0.0341282	-0.172665	0.166073	0.131297	0	0	0.333246	-0.191174	-0.19272	1.14057	0.126216	0	0	-0.260511	0.0326769	-0.065947	-0.175576	-0.244939	0.217208	0.736335	0.288875	0	0	-0.0922972	-0.336006	0.401087	0.738023	1.30539	0	0
1.86	-3.1252	1.45029	-1.5486	0.568456	1.4685	0.950802	-0.112015	0.0329638	-0.167277	0.152288	0.133266	0	0	0.340434	-0.190686	-0.209023	1.10222	0.13551	0	0	-0.263468	0.028176	-0.0628275	-0.176591	-0.244156	0.213885	0.739545	0.292325	0	0	-0.0973423	-0.334931	0.400067	0.739548	1.29798	0	0
1.87	-3.10811	1.44873	-1.56946	0.568656	1.4778	0.951004	-0.131874	0.032149	-0.160828	0.138379	0.135342	0	0	0.346166	-0.19066	-0.22706	1.06067	0.144145	0	0	-0.266045	0.0241647	-0.0597104	-0.176773	-0.243201	0.210239	0.742396	0.29549	0	0	-0.102164	-0.333556	0.399024	0.740567	1.28838	0	0
1.88	-3.09629	1.4475	-1.58549	0.568785	1.48714	0.950942	-0.151463	0.0316965	-0.153342	0.124429	0.136971	0	0	0.350579	-0.191617	-0.247689	1.01629	0.152126	0	0	-0.268075	0.0207642	-0.0561814	-0.176673	-0.241946	0.20535	0.745338	0.299444	0	0	-0.106818	-0.331799	0.397692	0.740914	1.27919	0	0
1.89	-3.08961	1.44659	-1.59542	0.56876	1.4965	0.95063	-0.170758	0.0317526	-0.146411	0.11053	0.139104	0	0	0.354278	-0.193276	-0.270306	0.969248	0.159115	0	0	-0.269572	0.0181766	-0.053766	-0.175721	-0.24105	0.202086	0.747904	0.303029	0	0	-0.111301	-0.330107	0.396678	0.740814	1.27014	0	0
1.9	-3.08458	1.44592	-1.60235	0.568578	1.5058	0.950112	-0.189796	0.0320465	-0.140392	0.0968142	0.141806	0	0	0.357226	-0.194029	-0.293222	0.918972	0.164295	0	0	-0.271005	0.0159568	-0.0527349	-0.173644	-0.240344	0.20057	0.749793	0.306106	0	0	-0.11518	-0.328574	0.395855	0.740084	1.26123	0	0
1.91	-3.07939	1.44586	-1.60813	0.568236	1.51506	0.949342	-0.208004	0.0323836	-0.135131	0.0835172	0.144964	0	0	0.359804	-0.192852	-0.31486	0.865604	0.168701	0	0	-0.271844	0.0138703	-0.0530551	-0.170904	-0.239121	0.198646	0.750891	0.309816	0	0	-0.118534	-0.32722	0.395237	0.738614	1.25328	0	0
1.92	-3.07566	1.4466	-1.61119	0.567686	1.5243	0.948273	-0.225312	0.0330824	-0.130387	0.0702777	0.148109	0	0	0.362555	-0.189977	-0.335313	0.809727	0.173224	0	0	-0.271982	0.0122455	-0.0544891	-0.167736	-0.237404	0.195761	0.751444	0.313756	0	0	-0.121286	-0.326017	0.395113	0.736709	1.24717	0	0
1.93	-3.07309	1.44827	-1.61214	0.566925	1.53344	0.946894	-0.240959	0.0339797	-0.126384	0.0582741	0.151277	0	0	0.365743	-0.185433	-0.354662	0.751623	0.178173	0	0	-0.271406	0.0110379	-0.0566342	-0.163963	-0.236618	0.195276	0.752138	0.314898	0	0	-0.123374	-0.324761	0.394957	0.734397	1.24464	0	0
1.94	-3.07461	1.45103	-1.60829	0.565973	1.54252	0.945207	-0.254157	0.0352653	-0.123633	0.049008	0.155216	0	0	0.369632	-0.179899	-0.372923	0.692216	0.183799	0	0	-0.26989	0.0105844	-0.0591732	-0.159926	-0.235852	0.194461	0.752468	0.31587	0	0	-0.12481	-0.3234	0.395435	0.731681	1.2429	0	0
1.95	-3.07193	1.45466	-1.60832	0.564834	1.55153	0.943308	-0.264903	0.0356578	-0.123721	0.0427954	0.161622	0	0	0.373165	-0.171865	-0.389914	0.629738	0.188246	0	0	-0.267665	0.00968619	-0.062278	-0.155048	-0.234866	0.193618	0.75167	0.316712	0	0	-0.125629	-0.321797	0.396007	0.728084	1.24216	0	0
1.96	-3.06223	1.45809	-1.61451	0.563492	1.56053	0.941342	-0.275173	0.0350438	-0.125337	0.038241	0.169567	0	0	0.374796	-0.160445	-0.404059	0.563727	0.191511	0	0	-0.265812	0.00814699	-0.0662752	-0.149591	-0.234452	0.1945	0.750411	0.317784	0	0	-0.125542	-0.320199	0.397152	0.723514	1.24207	0	0
1.97	-3.04388	1.46083	-1.62839	0.561934	1.56957	0.939368	-0.286657	0.0335371	-0.127582	0.0330013	0.177599	0	0	0.373168	-0.144685	-0.412839	0.492439	0.193386	0	0	-0.264754	0.00584139	-0.071167	-0.143938	-0.234409	0.196505	0.748826	0.318985	0	0	-0.124552	-0.318609	0.398774	0.717958	1.24332	0	0
1.98	-3.02662	1.46369	-1.64031	0.560162	1.57857	0.937277	-0.29729	0.0321889	-0.131545	0.0291065	0.18591	0	0	0.369814	-0.126043	-0.412425	0.417368	0.196255	0	0	-0.263846	0.00400675	-0.0767858	-0.138018	-0.234102	0.197266	0.746527	0.320361	0	0	-0.122892	-0.316752	0.399808	0.711826	1.24785	0	0
1.99	-3.0119	1.46673	-1.64962	0.558228	1.58757	0.935066	-0.30531	0.0307794	-0.138209	0.0298638	0.196357	0	0	0.364049	-0.105381	-0.401041	0.338069	0.196891	0	0	-0.262871	0.00264226	-0.0823159	-0.13212	-0.233275	0.19552	0.743442	0.324001	0	0	-0.120794	-0.314274	0.399482	0.704937	1.25724	0	0
2	-2.91378	1.47561	-1.74283	0.556384	1.59685	0.931481	-0.298925	0.0250378	-0.179314	0.040139	0.216307	0	0	0.361444	-0.0752957	-0.376219	0.252421	0.189442	0	0	-0.253051	-0.00750787	-0.0886096	-0.128734	-0.230825	0.193315	0.740369	0.328779	0	0	-0.121416	-0.314737	0.399905	0.701257	1.26629	0	0
2.01	-2.89138	1.47695	-1.76096	0.55436	1.60621	0.929244	-0.306001	0.0222335	-0.188268	0.0467008	0.229589	0	0	0.343322	-0.0513302	-0.333552	0.158108	0.168484	0	0	-0.253157	-0.00983921	-0.0926943	-0.12357	-0.231075	0.193865	0.737182	0.331298	0	0	-0.118633	-0.312002	0.399314	0.693163	1.27844	0	0
2.02	-2.88427	1.47696	-1.76608	0.552448	1.61592	0.927038	-0.311722	0.0200095	-0.197115	0.0589534	0.243914	0	0	0.317866	-0.0312928	-0.277695	0.0609443	0.135079	0	0	-0.254325	-0.0113468	-0.0940907	-0.119426	-0.232336	0.195287	0.735087	0.330965	0	0	-0.115915	-0.308832	0.398611	0.684883	1.29121	0	0
2.03	-2.90648	1.47762	-1.74342	0.550791	1.62589	0.924666	-0.315604	0.0202569	-0.203301	0.0745812	0.257891	0	0	0.299894	-0.0219452	-0.234831	0	0.110704	0	0	-0.254803	-0.0105428	-0.0931803	-0.116338	-0.233621	0.194754	0.733726	0.331255	0	0	-0.113566	-0.306048	0.399305	0.677617	1.29755	0	0
2.04	-2.83496	1.47372	-1.81346	0.550066	1.63524	0.921773	-0.325127	0.0180927	-0.199511	0.0828749	0.267678	0	0	0.306841	-0.00960517	-0.200162	0	0.0923198	0	0	-0.258435	-0.0230712	-0.0924972	-0.114049	-0.230817	0.19406	0.731726	0.333008	0	0	-0.111704	-0.30945	0.40043	0.676151	1.30196	0	0
2.05	-2.91526	1.47231	-1.73351	0.54784	1.64564	0.920241	-0.323294	0.0169442	-0.210997	0.119964	0.288223	0	0	0.310579	-0.0146705	-0.213259	0	0.116393	0	0	-0.262699	-0.0155308	-0.090931	-0.109779	-0.234419	0.192817	0.730444	0.339248	0	0	-0.108177	-0.303447	0.397795	0.666102	1.31673	0	0
2.06	-2.8316	1.46991	-1.81882	0.547149	1.65622	0.917572	-0.33167	0.00874188	-0.208699	0.13119	0.301311	0	0	0.308312	-0.00186544	-0.180811	0	0.0999401	0	0	-0.262334	-0.0301301	-0.0885435	-0.109457	-0.231254	0.192103	0.726901	0.340976	0	0	-0.109057	-0.307239	0.397658	0.665273	1.32208	0	0
2.07	-2.88501	1.46985	-1.76796	0.54484	1.66802	0.91629	-0.328464	0.000679688	-0.224625	0.171687	0.3226	0	0	0.298803	-0.00515462	-0.197521	0	0.120924	0	0	-0.262414	-0.0254552	-0.0857627	-0.108372	-0.233765	0.188525	0.724401	0.342968	0	0	-0.108649	-0.302398	0.395682	0.657556	1.33104	0	0
2.08	-2.85908	1.46569	-1.7954	0.543324	1.67916	0.914588	-0.333051	-0.00773691	-0.22418	0.198801	0.333919	0	0	0.305482	-0.00168967	-0.197139	0.0165509	0.12824	0	0	-0.265238	-0.0326315	-0.0829962	-0.108655	-0.233108	0.186224	0.721342	0.343094	0	0	-0.108551	-0.302795	0.393741	0.654854	1.33729	0	0
2.09	-2.83809	1.4614	-1.81805	0.541846	1.69056	0.912952	-0.337924	-0.0160116	-0.223063	0.22608	0.343608	0	0	0.319127	-0.0012707	-0.213758	0.0744701	0.14771	0	0	-0.267676	-0.0398408	-0.0797843	-0.109922	-0.232647	0.184926	0.717586	0.342347	0	0	-0.109364	-0.303702	0.390921	0.653693	1.34361	0	0
2.1	-2.83067	1.45931	-1.82622	0.540385	1.70247	0.911119	-0.341958	-0.0216048	-0.22173	0.25189	0.350631	0	0	0.339442	-0.00597187	-0.24142	0.148631	0.176281	0	0	-0.266719	-0.0452699	-0.0766742	-0.113374	-0.232027	0.18335	0.713082	0.341142	0	0	-0.112043	-0.305002	0.387469	0.65395	1.34921	0	0
2.11	-2.83381	1.45907	-1.82402	0.538891	1.71499	0.909163	-0.345112	-0.0254993	-0.219375	0.277224	0.354466	0	0	0.358166	-0.0134123	-0.267115	0.21939	0.204622	0	0	-0.262292	-0.0491756	-0.0727266	-0.119123	-0.231562	0.18162	0.707698	0.339602	0	0	-0.116645	-0.306066	0.383593	0.654359	1.35359	0	0
2.12	-2.83668	1.45849	-1.82462	0.537373	1.72782	0.907426	-0.347072	-0.0310079	-0.213975	0.305281	0.355628	0	0	0.36887	-0.0195733	-0.286556	0.273004	0.223959	0	0	-0.257474	-0.0534297	-0.0662593	-0.125824	-0.232138	0.180707	0.702191	0.337333	0	0	-0.121792	-0.306388	0.379132	0.654745	1.35655	0	0
2.13	-2.83046	1.45674	-1.83457	0.535607	1.74065	0.906057	-0.346821	-0.0392043	-0.208419	0.338983	0.353631	0	0	0.370919	-0.0211889	-0.298852	0.304737	0.225208	0	0	-0.253572	-0.0587945	-0.0598048	-0.132764	-0.232743	0.179411	0.696287	0.334299	0	0	-0.126506	-0.306319	0.374401	0.654915	1.35799	0	0
